# xmcd
#
# Track frame offsets:
#	150
#	16527
#	34321
#	51008
#	75557
#	91639
#	112211
#	128365
#	147921
#	164048
#	182185
#	199385
#	221774
#
# Disc length: 3194 seconds
#
# Revision: 1
# Processed by: cddbd v1.5.2PL0 Copyright (c) Steve Scherf et al.
# Submitted via: EasyCDDAExtractor 16.0.9.1
#
DISCID=b10c780d
DTITLE=Various Artist - Radio Play Hits Cd 3
DYEAR=1900
DGENRE=Pop
TTITLE0=The Cure - Friday I'm In Love
TTITLE1=Hoobastank - The Reason
TTITLE2=The Cardigans - My favourite Game
TTITLE3=Joan Osborne - One Of Us
TTITLE4=Reamonn - Tonight
TTITLE5=Pulp - Disco 2000
TTITLE6=Rooney - When Did Your Heart Go Missing?
TTITLE7=Deep Blue Something - Breakfast At Tiffany's
TTITLE8=The Cranberries - Animal Instinct
TTITLE9=Eagle Eye Cherry - Save Tonight
TTITLE10=The Robert Cray Band - Don't Be Afraid of The Dark
TTITLE11=Edie Brickell and The New Bohemians - What i Am
TTITLE12=Vanessa Carlton - A Thousand Miles
EXTD=
EXTT0=
EXTT1=
EXTT2=
EXTT3=
EXTT4=
EXTT5=
EXTT6=
EXTT7=
EXTT8=
EXTT9=
EXTT10=
EXTT11=
EXTT12=
PLAYORDER=
